<svg xmlns="http://www.w3.org/2000/svg" width="241" height="223" fill="none" viewBox="0 0 241 223">
  <rect width="110" height="38" y="5" fill="#00A859" rx="4"/>
  <path fill="#00A859" d="M126.439 22.04a2 2 0 0 1 0 2.92l-16.823 15.742c-1.277 1.195-3.366.29-3.366-1.46V7.758c0-1.75 2.089-2.656 3.366-1.46l16.823 15.74Z"/>
  <path fill="#FFFDFD" d="M13.012 16.94 8.959 29H6.117l5.313-14.219h1.816l-.234 2.158ZM16.4 29l-4.072-12.06-.244-2.159h1.826L19.252 29H16.4Zm-.185-5.283v2.119H8.588v-2.12h7.627Z"/>
  <rect width="128" height="38" y="48" fill="#A9CF45" rx="4"/>
  <path fill="#A9CF45" d="M144.487 65.554a2 2 0 0 1 0 2.892l-16.855 16.107c-1.273 1.216-3.382.314-3.382-1.446V50.893c0-1.76 2.109-2.662 3.382-1.446l16.855 16.107Z"/>
  <path fill="#FFFDFD" d="M12.807 67.662H9.174l-.02-1.894h3.116c.533 0 .98-.075 1.337-.225.359-.15.629-.368.811-.654.189-.287.283-.635.283-1.045 0-.456-.088-.827-.264-1.114-.169-.286-.436-.494-.8-.624-.365-.137-.827-.206-1.387-.206h-2.207V74H7.357V59.781h4.893c.807 0 1.527.078 2.158.235.638.15 1.179.384 1.621.703.443.319.778.72 1.006 1.2.235.483.352 1.056.352 1.72 0 .586-.137 1.126-.41 1.62-.267.489-.68.886-1.24 1.192-.554.306-1.257.482-2.11.528l-.82.683ZM12.69 74H8.383l1.123-2.11h3.184c.533 0 .973-.087 1.318-.263a1.76 1.76 0 0 0 .781-.723c.176-.312.264-.67.264-1.074 0-.443-.078-.827-.235-1.152a1.586 1.586 0 0 0-.722-.752c-.326-.176-.755-.264-1.29-.264h-2.792l.02-1.894h3.554l.615.732c.82.007 1.488.17 2.002.488.52.32.905.73 1.152 1.23a3.61 3.61 0 0 1 .372 1.622c0 .911-.2 1.676-.596 2.295-.39.618-.964 1.084-1.719 1.396-.749.313-1.657.469-2.724.469Z"/>
  <rect width="145" height="38" y="91" fill="#FFCC29" rx="4"/>
  <path fill="#FFCC29" d="M161.439 109.04c.845.79.845 2.13 0 2.92l-16.823 15.742c-1.277 1.195-3.366.289-3.366-1.461V94.759c0-1.75 2.089-2.656 3.366-1.46l16.823 15.741Z"/>
  <path fill="#FFFDFD" d="M16.678 113.322h2.685c-.071.951-.335 1.794-.79 2.53-.457.729-1.091 1.302-1.905 1.718-.814.417-1.8.625-2.959.625-.892 0-1.696-.156-2.412-.468a5.22 5.22 0 0 1-1.826-1.358c-.502-.592-.886-1.302-1.153-2.129-.267-.833-.4-1.767-.4-2.802v-1.084c0-1.036.137-1.97.41-2.803.274-.834.664-1.543 1.172-2.129a5.231 5.231 0 0 1 1.846-1.367c.722-.319 1.53-.479 2.422-.479 1.158 0 2.138.215 2.939.645a4.65 4.65 0 0 1 1.865 1.748c.443.742.71 1.595.801 2.558h-2.686c-.052-.599-.182-1.106-.39-1.523a2.048 2.048 0 0 0-.918-.947c-.404-.222-.94-.332-1.611-.332-.521 0-.98.097-1.377.293a2.52 2.52 0 0 0-.977.878c-.26.385-.456.866-.586 1.446-.13.573-.195 1.237-.195 1.992v1.104c0 .722.058 1.37.176 1.943.117.573.3 1.058.546 1.455.248.397.567.7.957.908.391.208.857.313 1.397.313.658 0 1.191-.105 1.601-.313.417-.208.733-.514.948-.918.221-.403.361-.905.42-1.504Z"/>
  <rect width="163" height="38" y="135" fill="#F58634" rx="4"/>
  <path fill="#F58634" d="M178.487 152.554a2 2 0 0 1 0 2.892l-16.855 16.107c-1.273 1.216-3.382.314-3.382-1.446v-32.214c0-1.76 2.109-2.662 3.382-1.446l16.855 16.107Z"/>
  <path fill="#FFFDFD" d="M11.605 161H8.54l.02-2.109h3.046c.827 0 1.52-.183 2.08-.547.56-.371.984-.902 1.27-1.592.287-.697.43-1.53.43-2.5v-.732c0-.749-.082-1.41-.244-1.983-.163-.573-.404-1.055-.723-1.445a3.005 3.005 0 0 0-1.162-.889c-.462-.202-.993-.303-1.592-.303H8.48v-2.119h3.184c.95 0 1.816.16 2.598.479a5.801 5.801 0 0 1 2.04 1.377 5.954 5.954 0 0 1 1.329 2.129c.312.826.469 1.751.469 2.773v.713c0 1.016-.157 1.94-.47 2.773a5.954 5.954 0 0 1-1.327 2.129 5.838 5.838 0 0 1-2.051 1.367c-.794.319-1.677.479-2.647.479Zm-1.562-14.219V161H7.357v-14.219h2.686Z"/>
  <rect width="181" height="38" y="179" fill="#ED3237" rx="4"/>
  <path fill="#ED3237" d="M196.576 196.583a2 2 0 0 1 0 2.834l-16.915 16.838c-1.261 1.256-3.411.362-3.411-1.417v-33.676c0-1.779 2.15-2.673 3.411-1.417l16.915 16.838Z"/>
  <path fill="#FFFDFD" d="M17.781 202.891V205h-7.558v-2.109h7.558Zm-6.738-12.11V205H8.357v-14.219h2.686Zm5.752 5.869v2.061h-6.572v-2.061h6.572Zm.957-5.869v2.119h-7.53v-2.119h7.53Z"/>
  <rect width="23" height="33.44" x="215" y="7.28" fill="#000" rx="4"/>
  <path fill="#000" d="M199.717 25.504a2 2 0 0 1 0-3.008l16.715-14.642c1.293-1.133 3.318-.215 3.318 1.504v29.284c0 1.719-2.025 2.637-3.318 1.504l-16.715-14.642Z"/>
  <path fill="#FFFDFD" d="M225.012 17.94 220.959 30h-2.842l5.313-14.219h1.816l-.234 2.158ZM228.4 30l-4.072-12.06-.244-2.159h1.826L231.252 30H228.4Zm-.185-5.283v2.119h-7.627v-2.12h7.627Z"/>
</svg>
