<svg xmlns="http://www.w3.org/2000/svg" width="61" height="54" fill="none" viewBox="0 0 61 54">
  <path fill="#3E3E3E" fill-rule="evenodd" stroke="#3E3E3E" stroke-width=".756" d="M14.062 27.731 4.28 35.044l-.586.148-1.685-.03-.594-.344-.049-1.206 12.265-9.426.151-.805-1.21-.752-2.32-9.37-.17-1.481.03-1.5.469-.995.42-.461.43-.197.408.034.571.295.325.469.408 1.69 2.672 11.754.923.752 1.171-.374 1.421.31 10.75 3.186 1.235.722.514.529.284.593-.034.627-.295.47-.499.31-.782-.016-14.041-4.29-.076 1.376.163.22.476 25.587-.439.404-2.657-.03-.374-.344.507-25.168Z" clip-rule="evenodd"/>
  <path stroke="#3E3E3E" stroke-linecap="round" stroke-width="2.268" d="m23.907 37.966 17.47-14.782L59.25 37.951"/>
  <path stroke="#3E3E3E" stroke-linecap="round" stroke-width="1.512" d="m26.134 51.44 30.274.117"/>
  <path stroke="#3E3E3E" stroke-width="1.89" d="m29.444 51.452.06-13.335 11.876-9.781 11.845 9.72-.053 13.49"/>
  <path stroke="#3E3E3E" stroke-linecap="round" stroke-width="1.134" d="M39.35 36.995v4.123m3.98-4.158v4.124m2.299.144h-8.156"/>
  <path fill="#3E3E3E" fill-rule="evenodd" d="m37.97 41.727.723 4.486 5.53.045.642-4.592-6.894.06Z" clip-rule="evenodd"/>
  <path stroke="#3E3E3E" stroke-linecap="round" stroke-width="1.323" d="M41.236 45.877c.122.938.403 2.305 1.548 2.352 1.346.057 2.983-2.806 3.78-3.844.347-.45.623-.73 1.313-.578.141.031.243.14.373.25"/>
  <path fill="#3E3E3E" stroke="#3E3E3E" stroke-width=".756" d="M27.286 15.913c2.554 0 4.625-1.994 4.625-4.453 0-2.46-2.07-4.453-4.625-4.453-2.554 0-4.625 1.994-4.625 4.453 0 2.46 2.07 4.453 4.625 4.453Z"/>
  <path fill="#3E3E3E" fill-rule="evenodd" stroke="#3E3E3E" stroke-width=".756" d="m19.913 10.289-2.375-.047c-1.342.775-1.127 2.291.062 2.687l2.234-.03.079-2.61Zm2.831-5.137c-.6-.518-1.197-1.037-1.796-1.555-1.527-.262-2.332 1.041-1.672 2.106l1.738 1.405 1.73-1.956Zm5.873-.835.085-2.374c-.755-1.354-2.274-1.163-2.689.02l-.004 2.234 2.608.12Zm4.819 2.725 1.604-1.753c.304-1.52-.977-2.359-2.06-1.728L31.529 5.26l1.908 1.783Zm1.137 5.828 2.376-.003c1.325-.803 1.078-2.314-.119-2.685l-2.233.077-.024 2.611Zm-2.959 4.917 1.735 1.623c1.516.32 2.37-.95 1.75-2.04l-1.681-1.471-1.804 1.888Zm-5.73 1.297.023 2.375c.815 1.318 2.324 1.058 2.685-.142l-.097-2.232-2.611-.002Zm-4.898-3.145-1.552 1.798c-.26 1.528 1.044 2.33 2.108 1.668l1.403-1.74-1.96-1.726Z" clip-rule="evenodd"/>
</svg>
