<svg xmlns="http://www.w3.org/2000/svg" width="49" height="52" fill="none" viewBox="0 0 49 52">
  <path fill="#FBFAF9" stroke="#3E3E3E" stroke-width=".756" d="M47.929 44.782H1v6.344h46.929v-6.344Z"/>
  <path stroke="#3E3E3E" stroke-width="1.134" d="M4.525 44.782 4.62 8.675h22.844v5.562l12.567 6.248v24.297M27.463 14.237v30.545M15.592.337v7.776M21.998.337v7.776"/>
  <path stroke="#3E3E3E" stroke-width="2.835" d="M6.396 13.093H25.65M6.396 17.812H25.65M6.396 22.625H25.65M6.396 27.094H25.65M6.396 31.813H25.65M6.396 36.47H25.65M6.396 41.282H25.65m3.81 0h9.094m-9.138-4.812h9.094m-9.094-4.689h9.094m-9.094-4.531h9.094m-9.094-4.5h9.094"/>
</svg>
