<svg xmlns="http://www.w3.org/2000/svg" width="157" height="200" fill="none" viewBox="0 0 157 200">
  <path fill="#000" fill-opacity=".75" fill-rule="evenodd" d="M62.949.377c-.696.326-1.614 1.338-4.615 5.088-20.27 25.333-37.745 51.463-47.62 71.205C5.173 87.75 1.952 96.516.397 104.746c-.566 2.999-.516 11.602.09 15.507.881 5.667 2.193 10.517 4.143 15.319 7.998 19.692 25.126 34.273 45.857 39.037 5.04 1.158 7.867 1.45 14.168 1.464 5.113.011 6.269-.05 9.1-.477 3.837-.579 9.409-1.958 12.742-3.155 1.313-.471 2.45-.857 2.526-.857.077 0 .303.765.503 1.7 1.26 5.867 4.403 11.7 8.761 16.254 11.292 11.8 29.269 13.863 43.03 4.938 7.929-5.143 13.463-13.539 15.084-22.887.584-3.366.579-8.221-.013-11.619-1.411-8.107-5.78-15.537-12.195-20.736l-.993-.805-.002-49.16c-.001-53.36.043-51.241-1.137-54.69-2.024-5.916-6.799-10.732-12.612-12.719-2.769-.946-4.662-1.21-7.69-1.069-2.855.133-5.049.645-7.379 1.724-5.643 2.612-9.707 7.483-11.372 13.631-.38 1.403-.468 2.461-.575 6.895l-.127 5.238-.705-1.152c-2.037-3.326-10.635-15.64-16.311-23.362C78.096 13.979 68.41 1.654 67.167.705c-1.036-.792-2.913-.938-4.217-.328Zm.315 12.406c-8.57 10.841-18.748 24.777-26.006 35.601-17.111 25.522-26.818 45.35-28.675 58.572-.623 4.437-.211 10.739 1.087 16.647 1.738 7.91 5.885 16.522 11.058 22.964 8.17 10.176 19.652 17.267 32.316 19.96 4.35.925 6.806 1.162 11.923 1.152 3.94-.008 5.496-.099 7.844-.46 5.005-.769 9.66-2.07 14.062-3.932l1.93-.816.13-.944c1.2-8.646 5.69-16.793 12.152-22.045l1.324-1.076v-74.24l-2.053-3.334c-8.126-13.195-19.353-29.177-31.483-44.82-2.056-2.65-3.813-4.899-3.905-4.996-.093-.098-.86.697-1.705 1.767Zm56.55 16.748c-4.398 1.155-7.806 4.714-8.724 9.11-.264 1.264-.307 8.507-.313 52.276l-.007 50.81-.474.838c-.292.517-1.191 1.382-2.349 2.26-3.636 2.756-6.082 5.572-7.897 9.092-1.973 3.827-2.887 7.623-2.899 12.034-.017 6.984 2.48 12.96 7.533 18.021 5.081 5.09 10.945 7.517 18.163 7.517 7.019 0 13.056-2.513 18.077-7.524 4.914-4.905 7.502-11.165 7.502-18.143 0-8.36-3.726-15.695-10.56-20.785-1.34-.998-2.281-1.874-2.616-2.435l-.523-.875-.104-51.752c-.096-47.362-.134-51.825-.449-52.606-1.263-3.135-3.575-5.787-6.089-6.983-2.694-1.281-5.528-1.574-8.271-.854Zm.914 37.504c-1.306.51-2.539 1.69-3.176 3.035l-.496 1.047-.002 38.769-.002 38.77-.994.367c-3.716 1.376-7.468 4.973-9.349 8.961-1.239 2.629-1.475 3.851-1.473 7.629.003 3.241.025 3.418.689 5.342 1.985 5.759 6.615 10.186 12.156 11.625 7.561 1.962 15.233-.942 19.474-7.373 6.031-9.146 2.373-21.592-7.63-25.957l-1.368-.597V110.08c0-43.766.171-39.761-1.784-41.72-1.684-1.686-3.887-2.169-6.045-1.325Zm-97.49 56.611c-1.722.603-2.824 2.134-2.824 3.924 0 2.581 3.754 9.601 7.612 14.234 2.793 3.354 7.25 7.227 10.852 9.429 3.738 2.285 9.251 4.637 10.871 4.637 1.175 0 2.573-.721 3.389-1.748.589-.742.64-.934.64-2.426 0-1.455-.061-1.7-.59-2.394-.776-1.02-1.228-1.296-3.495-2.141a36.155 36.155 0 0 1-13.281-8.71c-3.382-3.503-5.384-6.467-7.272-10.762-1.13-2.572-2.073-3.694-3.418-4.068-.981-.273-1.652-.266-2.484.025Z" clip-rule="evenodd"/>
</svg>
