<svg xmlns="http://www.w3.org/2000/svg" width="55" height="46" fill="none" viewBox="0 0 55 46">
  <path fill="#3E3E3E" stroke="#3E3E3E" stroke-linecap="round" stroke-linejoin="round" stroke-width="2.667" d="M1.366 23.54 26.971 2 1.366 23.54ZM26.972 2l26.097 21.543L26.972 2Z"/>
  <path stroke="#3E3E3E" stroke-width="1.333" d="M44.863 44.509V24.455L26.97 9.638 9.192 24.454V44.51"/>
  <path fill="#3E3E3E" stroke="#3E3E3E" stroke-linecap="round" stroke-linejoin="round" stroke-width="1.333" d="M4.748 44.77h44.96-44.96Z"/>
  <path fill="#3E3E3E" d="M27.488 23.838c-.289.05-1.285.24-2.354.943-.404.264-1.468.983-2.142 2.353-.933 1.906-.463 3.744-.318 4.248a1394.4 1394.4 0 0 1 5.82-2.062 2035.38 2035.38 0 0 1 5.632-1.971c-.233-.49-1.027-1.996-2.827-2.91-.503-.256-1.962-.913-3.81-.6Zm-1.017 9.121a1.006 1.006 0 1 1-2.011-.001 1.006 1.006 0 0 1 2.011 0Zm.159 3.042a.834.834 0 1 1-1.668.001.834.834 0 0 1 1.669-.001Zm.242 3.027a.676.676 0 1 1-1.351-.002.676.676 0 0 1 1.351.002Zm.359 3.024a.6.6 0 1 1-1.202 0 .6.6 0 0 1 1.202 0Zm10.4-3.632a.6.6 0 1 1-1.204-.002.6.6 0 0 1 1.204.001Zm-5.204 1.969a.601.601 0 1 1-1.202 0 .601.601 0 0 1 1.202 0Zm-.867-2.57c0 .37-.302.675-.675.675a.676.676 0 0 1 0-1.35c.373 0 .675.302.675.675Zm4.583-2.129a.676.676 0 1 1-1.352 0 .676.676 0 0 1 1.352 0Zm-5.069-.676a.834.834 0 1 1-1.669 0 .834.834 0 0 1 1.669 0Zm3.718-1.542a.834.834 0 1 1-1.668 0 .834.834 0 0 1 1.668 0Zm-4.553-1.368a1.007 1.007 0 0 1-2.013 0 1.007 1.007 0 0 1 2.013 0Zm3.194-1.493a1.006 1.006 0 1 1-2.015-.001 1.006 1.006 0 0 1 2.015.001Z"/>
  <path stroke="#3E3E3E" stroke-linecap="round" stroke-width="2.667" d="M26.019 24.394a60.204 60.204 0 0 0-.657-1.44c-.468-.996-.626-1.27-.888-1.53a2.572 2.572 0 0 0-.9-.573c-1.386-.578-2.963-1.108-3.491-1.284"/>
  <path fill="#3E3E3E" d="m21.053 31.084 13.68-4.842-13.68 4.842Z"/>
  <path stroke="#3E3E3E" stroke-linecap="square" stroke-width="2.667" d="m22.367 31.174 11.819-4.21"/>
</svg>
