<svg xmlns="http://www.w3.org/2000/svg" width="209" height="201" fill="none" viewBox="0 0 209 201">
  <path fill="#000" fill-opacity=".75" fill-rule="evenodd" d="M30.323 41.262c-8.495 1.957-14.93 8.49-16.718 16.972-.35 1.666-.428 9.092-.433 41.497l-.005 39.466-2.564 2.676c-1.41 1.472-3.166 3.568-3.902 4.659-1.937 2.869-3.954 7.341-4.888 10.837-.732 2.737-.813 3.584-.813 8.483 0 4.89.082 5.75.807 8.462 4.226 15.802 18.312 26.312 34.39 25.657 14.985-.611 27.53-10.775 31.57-25.577.772-2.83.845-3.572.844-8.542 0-4.897-.082-5.747-.813-8.483-.935-3.496-2.952-7.968-4.888-10.837-.736-1.091-2.49-3.184-3.896-4.652l-2.557-2.669-.084-40.406-.084-40.407-.873-2.488c-2.438-6.951-7.179-11.708-13.965-14.012-3.026-1.028-8.156-1.321-11.128-.636Zm1.014 6.267c-5.725 1.396-10.16 5.908-11.522 11.72-.39 1.664-.457 7.805-.461 42.162-.004 34.214-.07 40.338-.445 41.053-.243.462-1.204 1.445-2.136 2.185-4.139 3.286-7.634 9.021-9.07 14.881-.804 3.282-.72 9.777.171 13.136 2.674 10.079 10.141 17.592 20.159 20.282 3.697.993 9.847.993 13.544 0 10.018-2.69 17.485-10.203 20.159-20.282.891-3.359.976-9.854.172-13.136-1.43-5.837-4.677-11.192-9.02-14.877-1.02-.866-2.023-1.873-2.23-2.239-.288-.512-.379-9.944-.39-40.941-.014-34.384-.083-40.561-.472-42.223-1.977-8.435-10.29-13.714-18.459-11.721Zm.388 33.714c-.388 8.441 0 10.312 0 24.951l-.011 44.374-1.637.479c-4.634 1.356-8.973 5.98-10.254 10.928-3.276 12.654 10.035 23.596 21.713 17.848 7.778-3.828 11.006-13.707 6.938-21.231-1.824-3.372-5.486-6.478-8.923-7.568l-1.655-.525v-44.248c0-21.05.281-24.388 0-25.008-1.982-1.871-2.937-2.69-6.171 0Z" clip-rule="evenodd"/>
  <path stroke="#000" stroke-opacity=".75" d="M30.21 40.774c-8.683 2.001-15.266 8.684-17.094 17.357-.098.464-.169 1.282-.226 2.713-.056 1.445-.1 3.548-.131 6.607-.064 6.118-.085 16.078-.087 32.28l-.005 39.265-2.425 2.531c-1.42 1.483-3.198 3.602-3.956 4.725-1.969 2.917-4.008 7.441-4.956 10.988-.369 1.378-.58 2.305-.696 3.512-.114 1.194-.134 2.655-.134 5.1 0 2.441.02 3.902.134 5.095.115 1.206.325 2.13.69 3.496 4.285 16.023 18.576 26.692 34.893 26.028 15.21-.62 27.937-10.939 32.032-25.945.388-1.423.609-2.348.728-3.551.117-1.19.135-2.644.134-5.123 0-2.444-.02-3.905-.135-5.1-.115-1.207-.327-2.135-.695-3.512-.948-3.547-2.988-8.071-4.957-10.988-.758-1.123-2.532-3.239-3.949-4.718l-2.418-2.524-.084-40.206-.084-40.407v-.085l-.028-.08-.873-2.488c-2.488-7.091-7.34-11.964-14.276-14.32l-.16.474.16-.474c-1.57-.533-3.657-.868-5.716-.986-2.059-.117-4.136-.02-5.685.336Zm-9.908 18.59c1.32-5.633 5.614-9.998 11.154-11.35 7.885-1.923 15.936 3.172 17.853 11.35.086.366.162 1.021.223 2.372.062 1.34.107 3.336.14 6.36.068 6.047.089 16.184.096 33.377.005 15.499.031 25.608.091 31.907.03 3.149.069 5.35.118 6.797.025.723.053 1.264.084 1.643.015.189.032.346.052.468.01.061.02.121.034.175a.802.802 0 0 0 .076.197l.435-.246-.435.246c.078.139.21.303.35.465.15.171.334.366.541.574.415.416.93.894 1.451 1.336 4.257 3.612 7.45 8.873 8.857 14.614.387 1.581.567 3.977.536 6.414-.032 2.435-.275 4.852-.705 6.475l.483.128-.483-.128c-2.629 9.907-9.961 17.283-19.805 19.927l.13.483-.13-.483c-1.792.481-4.207.728-6.643.728-2.435 0-4.85-.247-6.642-.728l-.13.483.13-.483c-9.844-2.644-17.177-10.02-19.805-19.927l-.484.128.484-.128c-.43-1.623-.673-4.04-.705-6.475-.032-2.437.148-4.833.536-6.414 1.413-5.768 4.855-11.401 8.895-14.608l-.31-.392.31.392a15.36 15.36 0 0 0 1.373-1.239c.387-.396.735-.803.894-1.105v-.001c.095-.179.143-.439.18-.736a19.4 19.4 0 0 0 .104-1.376c.06-1.22.103-3.13.135-6.079.064-5.9.082-15.988.084-33.094.002-17.18.02-27.301.085-33.335.034-3.018.079-5.008.14-6.345.06-1.348.137-2.001.223-2.367Zm11.103 21.495-.17.14-.01.221c-.231 5.046-.187 7.764-.113 12.241.05 3.023.113 6.848.113 12.733l-.01 44-1.279.374c-4.814 1.408-9.275 6.175-10.597 11.282-3.38 13.061 10.35 24.361 22.417 18.422 8.027-3.951 11.364-14.138 7.157-21.918-1.88-3.478-5.642-6.675-9.211-7.807l-.139.438.139-.438-1.306-.414v-43.882c0-9.735.06-15.68.097-19.321l.009-.84c.017-1.768.026-2.91.013-3.647a11.069 11.069 0 0 0-.04-.86 1.771 1.771 0 0 0-.123-.546l-.04-.09-.072-.068c-.49-.462-.947-.89-1.4-1.211-.458-.326-.944-.568-1.503-.632-1.116-.129-2.31.473-3.932 1.823Z"/>
  <path fill="#000" fill-opacity=".75" fill-rule="evenodd" d="M107.521.425c-7.97 1.83-14.697 8.464-16.279 16.052-.85 4.082-.369 6.415 1.701 8.234 3.701 3.252 9.088.853 9.624-4.287.362-3.461 2.125-6.036 5.18-7.564 5.298-2.65 11.665-.35 14.166 5.118 2.83 6.189.358 13.399-5.596 16.318l-1.749.857-25.22.146-25.218.146-1.222.654c-2.433 1.301-3.71 4.182-3.008 6.783.463 1.715 2.344 3.62 4.02 4.073.896.241 8.13.307 26.234.238l24.997-.094 2.186-.666c6.815-2.073 12.15-6.493 15.024-12.447 1.923-3.984 2.307-5.728 2.309-10.505.003-4.837-.436-6.878-2.322-10.798-2.76-5.736-7.566-9.884-13.699-11.822-2.622-.828-8.43-1.056-11.128-.436Zm61.053.027c-10.153 1.837-18.168 8.628-21.152 17.922-1.284 4-1.593 8.85-.801 12.588 1.952 9.22 9.738 16.545 18.446 17.355 2.477.23 3.818-.157 5.353-1.545 2.212-2 2.607-5.126.947-7.49-1.095-1.56-2.638-2.406-4.84-2.656-5.937-.672-9.779-6.888-8.26-13.367 1.211-5.161 4.597-8.76 9.995-10.622 1.981-.683 2.745-.787 5.781-.79 4.27-.005 6.584.514 10.204 2.287 7.922 3.88 12.683 11.466 12.683 20.206 0 3.987-.6 6.566-2.393 10.29-1.31 2.72-1.781 3.367-4.284 5.872s-3.149 2.977-5.867 4.288c-5.384 2.598-.054 2.395-63.114 2.395-41.62 0-56.208.087-57.215.341-1.827.46-3.615 2.254-4.149 4.16-.72 2.576.573 5.402 3.071 6.714l1.15.604h56.853c44.845 0 57.265-.079 58.811-.372 5.162-.98 9.974-2.921 13.969-5.638 2.366-1.607 6.321-5.413 8.151-7.842 2.921-3.878 5.535-9.948 6.413-14.892.543-3.058.462-9.503-.156-12.402-2.646-12.42-11.244-22.126-23.136-26.114-5.104-1.711-11.41-2.207-16.46-1.292ZM63.863 80.597c-1.587.426-3.457 2.365-3.938 4.085-.843 3.012 1.119 6.421 4.132 7.18 1.007.254 15.595.341 57.215.341 63.06 0 57.73-.202 63.114 2.395 2.718 1.311 3.364 1.783 5.867 4.288 2.501 2.504 2.975 3.154 4.286 5.873 1.981 4.108 2.5 6.605 2.321 11.178-.167 4.253-.955 7.01-3.005 10.504-6.717 11.455-23.048 14.922-31.64 6.719-5.026-4.799-5.718-12.655-1.526-17.322 1.628-1.812 3.463-2.787 5.779-3.07 2.273-.278 3.737-1.042 4.795-2.504 1.646-2.274 1.464-5.131-.462-7.265-1.459-1.616-3.1-2.172-5.693-1.931-5.732.533-11.238 3.879-14.847 9.023-5.699 8.122-5.396 19.423.751 28.073 1.433 2.017 4.323 4.854 6.361 6.246 2.233 1.525 6.568 3.457 9.249 4.121 3.182.787 8.983 1.069 12.232.594 12.961-1.897 23.939-10.919 28.074-23.071 1.281-3.766 1.738-6.561 1.763-10.797.026-4.433-.368-7.132-1.593-10.899-1.789-5.5-4.27-9.508-8.539-13.796-5.155-5.179-9.837-7.718-17.81-9.659-1.882-.458-6.468-.501-58.893-.554-38.867-.039-57.212.04-57.993.248Zm-.316 21.96c-1.54.554-3.226 2.391-3.657 3.985-.692 2.564.6 5.454 3.018 6.747l1.222.654 25.219.146 25.219.146 1.749.858c4.741 2.324 7.442 7.516 6.633 12.75-.655 4.234-3.21 7.671-6.72 9.042-2.473.965-5.783.932-7.966-.082-3.362-1.561-5.324-4.246-5.693-7.793-.539-5.185-5.908-7.601-9.628-4.332-2.07 1.819-2.552 4.151-1.7 8.233 1.296 6.221 6.415 12.271 12.537 14.821 5.964 2.483 13.059 2.165 18.805-.841 5.562-2.91 9.906-8.493 11.557-14.855.736-2.831.739-9.436.006-12.11-2.239-8.177-8.422-14.419-16.811-16.971l-2.186-.665-25.22-.076c-21.325-.064-25.398-.011-26.384.343Z" clip-rule="evenodd"/>
</svg>
