<svg xmlns="http://www.w3.org/2000/svg" width="135" height="201" fill="none" viewBox="0 0 135 201">
  <path fill="#000" fill-opacity=".75" fill-rule="evenodd" d="M26.935 4.63c-3.143 3.142-3.963 4.726-3.963 7.654v3.691h-6.227c-7.523 0-12.072 1.973-14.748 6.394C.058 25.572 0 28.093 0 108.322c0 77.094.121 82.875 1.804 85.952 3.589 6.563 1.88 6.395 65.07 6.395 62.396 0 60.9.134 64.935-5.815 1.691-2.496 1.398-5.094 1.691-21.354-.545-10.373-.037-15.751 0-18.5 0 2.5 0-1 0 0l-11.426 10.465-.289 11.735-.29 11.734-11.898.287c-9.045.217-10.69.279-12.597.279-2.094-.019-2.527.019-5.5 0-2.727-.018-5.701-.071-39.498-.298l-39.75-.268-.262-80.357-.261-80.357h11.243v6.138c0 5.564.325 6.493 3.493 9.95l3.494 3.81 35.558.319c31.239.28 35.939.117 38.693-1.338 4.529-2.392 6.565-6.477 6.565-13.168v-5.71h11.23v42.57l.069 94.674L133.5 155l.734-90.524c-.02-33.574-.187-37.127-1.912-40.925-2.426-5.337-6.953-7.575-15.321-7.575h-6.226v-3.16c0-4.018-2.543-8.338-6.167-10.477C102.137.879 97.316.669 66.34.669H30.9l-3.965 3.962Zm7.715 8.59c-.286.746-.39 6.378-.23 12.515l.293 11.159h64.32v-24.49l-31.931-.27c-25.8-.218-32.032-.008-32.453 1.086ZM30.9 69.85v3.571h71.467v-7.144H30.9v3.572Zm0 19.387v3.572h71.467v-7.144H30.9v3.571Zm0 19.388v3.571h71.467v-7.142H30.9v3.571Z" clip-rule="evenodd"/>
  <path fill="#000" fill-opacity=".75" d="M30.9 129.322v-7.143h71.467v7.143H30.9Zm0 18.143v-7.143h71.467v7.143H30.9Zm0 18v-7.143h71.467v7.143H30.9Z"/>
</svg>
