<svg xmlns="http://www.w3.org/2000/svg" width="49" height="45" fill="none" viewBox="0 0 49 45">
  <path stroke="#3E3E3E" stroke-width="2.835" d="M20.126 43.986V1M.825 33.084l18.337-10.591L.995 10.923m19.131 24.442-4.62 6.74M5.343 35.988l2.434-6.718M.366 28.106l7.411 1.163M.366 15.767l7.568-.65M5.136 7.782l2.797 7.334m7.365-13.451 4.828 7.258"/>
  <path fill="#3E3E3E" fill-rule="evenodd" stroke="#3E3E3E" stroke-width="2.835" d="M23.8 14.4c4.124 0 7.467 3.367 7.467 7.519s-3.343 7.518-7.466 7.518V14.4Z" clip-rule="evenodd"/>
  <path stroke="#3E3E3E" stroke-width="2.835" d="M24.32 1v11.069m4.665 0L35.933 1m-3.007 15.597 7.984-3.526m-6.013 8.814h13.48M32.926 27.07l9.021 4.563m-12.65.103 6.844 11.821M24.009 32.462v10.37"/>
</svg>
