<svg xmlns="http://www.w3.org/2000/svg" width="47" height="46" fill="none" viewBox="0 0 47 46">
  <path fill="#3E3E3E" fill-rule="evenodd" stroke="#3E3E3E" stroke-width=".756" d="m18.384 6.083.958-1.916 1.792-1.417.625-1.083.333-.667 2.917.042.583.708 1 1.167L28.01 4l.541 2.063-10.166.02Z" clip-rule="evenodd"/>
  <path stroke="#3E3E3E" stroke-linecap="round" stroke-width="2.646" d="M18.874 8.503h9.188"/>
  <path stroke="#3E3E3E" stroke-width="2.268" d="M18.373 11.816C3.81 32.245 23.244 37.7 31.69 31.51c4.642-3.403 4.86-11.838-3.127-19.699l-10.19.005Z" clip-rule="evenodd"/>
  <path stroke="#3E3E3E" stroke-width="2.268" d="M23.468 11.813v11.052"/>
  <path stroke="#3E3E3E" stroke-linecap="round" stroke-width="2.835" d="m6.867 11.317 4.875 3.917m-9.376 9.39 6.253.054m30.259-.054 6.253.054M7.536 39.03l4.58-4.258m11.636 9.345-.072-6.253m10.367-2.843 4.494 4.35M35.586 14.79l4.915-3.867"/>
</svg>
