<svg xmlns="http://www.w3.org/2000/svg" width="194" height="202" fill="none" viewBox="0 0 194 202">
  <mask id="a" width="194" height="202" x="0" y="0" fill="#000" maskUnits="userSpaceOnUse">
    <path fill="#fff" d="M0 0h194v202H0z"/>
    <path fill-rule="evenodd" d="M13.296 1.296C13.133 1.46 13 44.96 13 97.963v96.37H1V201h191.111v-6.667h-11.997l-.113-77.444-.112-77.445L150 39.33l-29.889-.114V1H66.852c-29.293 0-53.393.133-53.556.296ZM20.111 101v93.333H71.66l.115-30.111.114-30.111h30.667l.114 30.111.114 30.111H113V7.667H20.111V101Zm10.871-85.225c-.119.31-.164 7.263-.1 15.45L31 46.111h31.111V15.444l-15.456-.116c-12.171-.092-15.502.003-15.673.447Zm40 0c-.119.31-.164 7.263-.1 15.45L71 46.111h31.111V15.444l-15.456-.116c-12.171-.092-15.502.003-15.673.447ZM37.89 30.778v8.444h17.333V22.333H37.89v8.445Zm40 0v8.444h17.333V22.333H77.89v8.445Zm42.222 89.555v74H173v-148h-52.889v74Zm-89.13-65.002c-.119.31-.164 7.263-.1 15.45L31 85.667h31.111V55l-15.456-.117c-12.171-.092-15.502.003-15.673.448Zm40 0c-.119.31-.164 7.263-.1 15.45L71 85.667h31.111V55l-15.456-.117c-12.171-.092-15.502.003-15.673.448Zm60 0c-.119.31-.164 7.263-.099 15.45L131 85.667h31.111V55l-15.456-.117c-12.171-.092-15.502.003-15.673.448ZM37.889 70.333v8.445h17.333V61.889H37.89v8.444Zm40 0v8.445h17.333V61.889H77.89v8.444Zm60 0v8.445h17.333V61.889h-17.333v8.444ZM30.982 94.886c-.119.31-.164 7.263-.1 15.45L31 125.222h31.111V94.556l-15.456-.117c-12.171-.092-15.502.003-15.673.447Zm40 0c-.119.31-.164 7.263-.1 15.45L71 125.222h31.111V94.556l-15.456-.117c-12.171-.092-15.502.003-15.673.447Zm60 0c-.119.31-.164 7.263-.099 15.45l.117 14.886h31.111V94.556l-15.456-.117c-12.171-.092-15.502.003-15.673.447ZM37.889 109.89v8.444h17.333v-16.89H37.89v8.445Zm40 0v8.444h17.333v-16.89H77.89v8.445Zm60 0v8.444h17.333v-16.89h-17.333v8.445Zm-105.92 24.29c-.166.166-.302 7.168-.302 15.561V165h31.122l-.117-15.444-.116-15.445-15.143-.117c-8.328-.064-15.278.019-15.444.186Zm100 0c-.166.166-.302 7.168-.302 15.561V165h31.122l-.117-15.444-.116-15.445-15.143-.117c-8.328-.064-15.278.019-15.444.186Zm-93.191 15.264v8.445H56.11V141H38.778v8.444Zm40 18.223v26.666H96.11V141H78.778v26.667Zm60-18.223v8.445h17.333V141h-17.333v8.444Z" clip-rule="evenodd"/>
  </mask>
  <path fill="#000" fill-opacity=".75" fill-rule="evenodd" d="M13.296 1.296C13.133 1.46 13 44.96 13 97.963v96.37H1V201h191.111v-6.667h-11.997l-.113-77.444-.112-77.445L150 39.33l-29.889-.114V1H66.852c-29.293 0-53.393.133-53.556.296ZM20.111 101v93.333H71.66l.115-30.111.114-30.111h30.667l.114 30.111.114 30.111H113V7.667H20.111V101Zm10.871-85.225c-.119.31-.164 7.263-.1 15.45L31 46.111h31.111V15.444l-15.456-.116c-12.171-.092-15.502.003-15.673.447Zm40 0c-.119.31-.164 7.263-.1 15.45L71 46.111h31.111V15.444l-15.456-.116c-12.171-.092-15.502.003-15.673.447ZM37.89 30.778v8.444h17.333V22.333H37.89v8.445Zm40 0v8.444h17.333V22.333H77.89v8.445Zm42.222 89.555v74H173v-148h-52.889v74Zm-89.13-65.002c-.119.31-.164 7.263-.1 15.45L31 85.667h31.111V55l-15.456-.117c-12.171-.092-15.502.003-15.673.448Zm40 0c-.119.31-.164 7.263-.1 15.45L71 85.667h31.111V55l-15.456-.117c-12.171-.092-15.502.003-15.673.448Zm60 0c-.119.31-.164 7.263-.099 15.45L131 85.667h31.111V55l-15.456-.117c-12.171-.092-15.502.003-15.673.448ZM37.889 70.333v8.445h17.333V61.889H37.89v8.444Zm40 0v8.445h17.333V61.889H77.89v8.444Zm60 0v8.445h17.333V61.889h-17.333v8.444ZM30.982 94.886c-.119.31-.164 7.263-.1 15.45L31 125.222h31.111V94.556l-15.456-.117c-12.171-.092-15.502.003-15.673.447Zm40 0c-.119.31-.164 7.263-.1 15.45L71 125.222h31.111V94.556l-15.456-.117c-12.171-.092-15.502.003-15.673.447Zm60 0c-.119.31-.164 7.263-.099 15.45l.117 14.886h31.111V94.556l-15.456-.117c-12.171-.092-15.502.003-15.673.447ZM37.889 109.89v8.444h17.333v-16.89H37.89v8.445Zm40 0v8.444h17.333v-16.89H77.89v8.445Zm60 0v8.444h17.333v-16.89h-17.333v8.445Zm-105.92 24.29c-.166.166-.302 7.168-.302 15.561V165h31.122l-.117-15.444-.116-15.445-15.143-.117c-8.328-.064-15.278.019-15.444.186Zm100 0c-.166.166-.302 7.168-.302 15.561V165h31.122l-.117-15.444-.116-15.445-15.143-.117c-8.328-.064-15.278.019-15.444.186Zm-93.191 15.264v8.445H56.11V141H38.778v8.444Zm40 18.223v26.666H96.11V141H78.778v26.667Zm60-18.223v8.445h17.333V141h-17.333v8.444Z" clip-rule="evenodd"/>
  <path stroke="#000" stroke-opacity=".75" stroke-width="2" d="M13.296 1.296C13.133 1.46 13 44.96 13 97.963v96.37H1V201h191.111v-6.667h-11.997l-.113-77.444-.112-77.445L150 39.33l-29.889-.114V1H66.852c-29.293 0-53.393.133-53.556.296ZM20.111 101v93.333H71.66l.115-30.111.114-30.111h30.667l.114 30.111.114 30.111H113V7.667H20.111V101Zm10.871-85.225c-.119.31-.164 7.263-.1 15.45L31 46.111h31.111V15.444l-15.456-.116c-12.171-.092-15.502.003-15.673.447Zm40 0c-.119.31-.164 7.263-.1 15.45L71 46.111h31.111V15.444l-15.456-.116c-12.171-.092-15.502.003-15.673.447ZM37.89 30.778v8.444h17.333V22.333H37.89v8.445Zm40 0v8.444h17.333V22.333H77.89v8.445Zm42.222 89.555v74H173v-148h-52.889v74Zm-89.13-65.002c-.119.31-.164 7.263-.1 15.45L31 85.667h31.111V55l-15.456-.117c-12.171-.092-15.502.003-15.673.448Zm40 0c-.119.31-.164 7.263-.1 15.45L71 85.667h31.111V55l-15.456-.117c-12.171-.092-15.502.003-15.673.448Zm60 0c-.119.31-.164 7.263-.099 15.45L131 85.667h31.111V55l-15.456-.117c-12.171-.092-15.502.003-15.673.448ZM37.889 70.333v8.445h17.333V61.889H37.89v8.444Zm40 0v8.445h17.333V61.889H77.89v8.444Zm60 0v8.445h17.333V61.889h-17.333v8.444ZM30.982 94.886c-.119.31-.164 7.263-.1 15.45L31 125.222h31.111V94.556l-15.456-.117c-12.171-.092-15.502.003-15.673.447Zm40 0c-.119.31-.164 7.263-.1 15.45L71 125.222h31.111V94.556l-15.456-.117c-12.171-.092-15.502.003-15.673.447Zm60 0c-.119.31-.164 7.263-.099 15.45l.117 14.886h31.111V94.556l-15.456-.117c-12.171-.092-15.502.003-15.673.447ZM37.889 109.89v8.444h17.333v-16.89H37.89v8.445Zm40 0v8.444h17.333v-16.89H77.89v8.445Zm60 0v8.444h17.333v-16.89h-17.333v8.445Zm-105.92 24.29c-.166.166-.302 7.168-.302 15.561V165h31.122l-.117-15.444-.116-15.445-15.143-.117c-8.328-.064-15.278.019-15.444.186Zm100 0c-.166.166-.302 7.168-.302 15.561V165h31.122l-.117-15.444-.116-15.445-15.143-.117c-8.328-.064-15.278.019-15.444.186Zm-93.191 15.264v8.445H56.11V141H38.778v8.444Zm40 18.223v26.666H96.11V141H78.778v26.667Zm60-18.223v8.445h17.333V141h-17.333v8.444Z" clip-rule="evenodd" mask="url(#a)"/>
</svg>
