<svg xmlns="http://www.w3.org/2000/svg" width="176" height="202" fill="none" viewBox="0 0 176 202">
  <mask id="a" width="176" height="202" x="0" y="0" fill="#000" maskUnits="userSpaceOnUse">
    <path fill="#fff" d="M0 0h176v202H0z"/>
    <path fill-rule="evenodd" d="m85.298 1.903-1.094.943-.117 12.305c-.099 10.261-.021 12.539.468 13.712 1.116 2.677 4.48 2.805 5.798.22.627-1.232.682-2.52.584-13.798l-.108-12.44-1.093-.942C88.339.7 86.695.7 85.298 1.903ZM27.26 25.745c-1.504.656-2.258 2.483-1.669 4.045.466 1.235 16.407 17.456 17.965 18.28 1.577.834 2.587.68 3.85-.586.789-.791 1.138-1.53 1.138-2.405 0-1.124-.958-2.232-8.67-10.025-7.773-7.854-10.08-9.904-11.088-9.854-.172.008-.858.254-1.526.545Zm117.349.176c-.643.403-4.984 4.595-9.645 9.314-7.767 7.863-8.477 8.695-8.477 9.936a3.31 3.31 0 0 0 4.619 3.09c1.438-.598 17.818-17.099 18.334-18.471a3.175 3.175 0 0 0-1.753-4.062c-1.644-.688-1.676-.686-3.078.193ZM82.84 38.707c-12.758 1.58-23.809 7.595-31.386 17.085-9.325 11.682-12.48 25.632-9.092 40.214.958 4.127 2.99 8.381 9.197 19.262 11.348 19.895 15.403 28.425 16.492 34.693.314 1.81.71 2.777 1.41 3.435l.971.915h34.17l.972-.915c.698-.658 1.095-1.625 1.409-3.435 1.089-6.268 5.144-14.798 16.492-34.693 2.566-4.497 5.506-9.9 6.533-12.007 5.111-10.477 5.319-24.216.544-35.782-5.97-14.457-18.518-24.838-33.877-28.025-3.074-.638-11.178-1.075-13.835-.747Zm-1.631 7.008C61.384 48.81 46.814 66.707 47.888 86.643c.45 8.347 1.543 11.197 9.978 25.999 9.104 15.975 13.56 24.892 15.648 31.316l1.08 3.321h25.817l1.143-3.408c2.211-6.598 7.18-16.479 16.359-32.537 7.556-13.217 8.793-16.525 9.233-24.69.594-11.026-3.54-21.75-11.434-29.665-6.193-6.208-13.643-9.99-22.244-11.289-4.564-.69-7.727-.683-12.26.025ZM3.088 84.56C2.07 84.98 1 86.443 1 87.412c0 1.33 1.134 2.93 2.385 3.368 1.97.689 23.776.586 25.461-.12 2.306-.966 2.853-3.287 1.222-5.188l-.94-1.096-12.602-.081c-6.932-.045-12.979.075-13.438.265Zm143.025 0c-1.778.737-2.585 3.038-1.667 4.758.912 1.707 2.348 1.895 14.513 1.895 7.375 0 11.892-.154 12.69-.433 1.275-.446 2.385-2.043 2.385-3.433 0-.428-.424-1.272-.94-1.875l-.941-1.096-12.602-.081c-6.931-.045-12.978.075-13.438.265Zm-80.074 6.843c-.56.308-1.237 1.09-1.504 1.736-.448 1.085.036 2.886 6.233 23.165 3.695 12.094 6.9 22.34 7.12 22.77.628 1.219 1.52 1.732 3.033 1.746 1.833.016 3.238-1.409 3.16-3.206-.031-.701-2.576-9.45-5.654-19.443-3.079-9.992-5.551-18.227-5.495-18.299.057-.072 3.361.945 7.344 2.26l7.24 2.391 7.242-2.391c3.982-1.315 7.287-2.332 7.344-2.26.056.072-2.416 8.307-5.495 18.299-3.079 9.993-5.623 18.742-5.654 19.443-.078 1.8 1.324 3.218 3.184 3.218 2.103 0 2.93-1.044 4.256-5.372.641-2.095 3.727-12.161 6.857-22.368 6.284-20.49 6.243-20.251 3.686-21.636l-1.356-.734-10.043 3.337-10.044 3.338-9.133-3.058c-10.778-3.609-11-3.662-12.321-2.936Zm-31.401 44.45c-8.882 8.882-9.086 9.121-9.086 10.676 0 2.089 1.205 3.289 3.301 3.289 1.428 0 1.889-.389 10.042-8.498 8.458-8.41 9.65-9.823 9.65-11.438 0-1.311-2.056-3.115-3.55-3.115-1.14 0-2.22.948-10.357 9.086Zm93.098-8.294c-1.117 1.043-1.444 2.478-.877 3.85.253.612 4.366 5.003 9.141 9.76 8.179 8.148 8.766 8.649 10.125 8.649 1.982 0 3.357-1.391 3.357-3.399 0-1.411-.424-1.904-9.086-10.566-8.386-8.387-9.19-9.086-10.448-9.086-.832 0-1.695.309-2.212.792ZM85.373 159.76c-7.675.796-12.396 1.452-12.946 1.798-2.095 1.32-2.005 4.282.17 5.555 1.157.677 1.593.657 15.168-.708 9.653-.971 14.253-1.584 14.871-1.984 1.806-1.168 1.959-3.373.357-5.128-1.056-1.156-2.291-1.123-17.62.467Zm1.99 9.801c-14.493 1.503-14.74 1.542-15.572 2.463-1.188 1.316-1.21 2.918-.058 4.291.893 1.063 1.302 1.243 2.825 1.243 2.794 0 25.458-2.303 27.084-2.753 2.852-.788 3.422-4.352.939-5.869-.676-.414-1.58-.732-2.009-.708-.428.025-6.372.625-13.208 1.333Zm-1.795 10.178-12.665 1.309-1.111 1.235c-.895.995-1.065 1.471-.877 2.455.275 1.438 1.87 2.979 3.081 2.977 2.58-.005 27.676-2.773 28.331-3.125 2.16-1.159 2.416-3.955.501-5.465-1.28-1.009-1.684-.995-17.26.614Zm-13.424 12.373c-.548.483-1.097 1.409-1.22 2.057-.319 1.664.773 2.888 4.496 5.04L78.517 201h18l3.097-1.791c3.722-2.152 4.814-3.376 4.497-5.04-.281-1.47-1.893-2.937-3.229-2.937-.556 0-2.228.704-3.715 1.563l-2.704 1.563H80.571l-2.704-1.563c-3.087-1.784-4.31-1.93-5.723-.683Z" clip-rule="evenodd"/>
  </mask>
  <path fill="#000" fill-opacity=".75" fill-rule="evenodd" d="m85.298 1.903-1.094.943-.117 12.305c-.099 10.261-.021 12.539.468 13.712 1.116 2.677 4.48 2.805 5.798.22.627-1.232.682-2.52.584-13.798l-.108-12.44-1.093-.942C88.339.7 86.695.7 85.298 1.903ZM27.26 25.745c-1.504.656-2.258 2.483-1.669 4.045.466 1.235 16.407 17.456 17.965 18.28 1.577.834 2.587.68 3.85-.586.789-.791 1.138-1.53 1.138-2.405 0-1.124-.958-2.232-8.67-10.025-7.773-7.854-10.08-9.904-11.088-9.854-.172.008-.858.254-1.526.545Zm117.349.176c-.643.403-4.984 4.595-9.645 9.314-7.767 7.863-8.477 8.695-8.477 9.936a3.31 3.31 0 0 0 4.619 3.09c1.438-.598 17.818-17.099 18.334-18.471a3.175 3.175 0 0 0-1.753-4.062c-1.644-.688-1.676-.686-3.078.193ZM82.84 38.707c-12.758 1.58-23.809 7.595-31.386 17.085-9.325 11.682-12.48 25.632-9.092 40.214.958 4.127 2.99 8.381 9.197 19.262 11.348 19.895 15.403 28.425 16.492 34.693.314 1.81.71 2.777 1.41 3.435l.971.915h34.17l.972-.915c.698-.658 1.095-1.625 1.409-3.435 1.089-6.268 5.144-14.798 16.492-34.693 2.566-4.497 5.506-9.9 6.533-12.007 5.111-10.477 5.319-24.216.544-35.782-5.97-14.457-18.518-24.838-33.877-28.025-3.074-.638-11.178-1.075-13.835-.747Zm-1.631 7.008C61.384 48.81 46.814 66.707 47.888 86.643c.45 8.347 1.543 11.197 9.978 25.999 9.104 15.975 13.56 24.892 15.648 31.316l1.08 3.321h25.817l1.143-3.408c2.211-6.598 7.18-16.479 16.359-32.537 7.556-13.217 8.793-16.525 9.233-24.69.594-11.026-3.54-21.75-11.434-29.665-6.193-6.208-13.643-9.99-22.244-11.289-4.564-.69-7.727-.683-12.26.025ZM3.088 84.56C2.07 84.98 1 86.443 1 87.412c0 1.33 1.134 2.93 2.385 3.368 1.97.689 23.776.586 25.461-.12 2.306-.966 2.853-3.287 1.222-5.188l-.94-1.096-12.602-.081c-6.932-.045-12.979.075-13.438.265Zm143.025 0c-1.778.737-2.585 3.038-1.667 4.758.912 1.707 2.348 1.895 14.513 1.895 7.375 0 11.892-.154 12.69-.433 1.275-.446 2.385-2.043 2.385-3.433 0-.428-.424-1.272-.94-1.875l-.941-1.096-12.602-.081c-6.931-.045-12.978.075-13.438.265Zm-80.074 6.843c-.56.308-1.237 1.09-1.504 1.736-.448 1.085.036 2.886 6.233 23.165 3.695 12.094 6.9 22.34 7.12 22.77.628 1.219 1.52 1.732 3.033 1.746 1.833.016 3.238-1.409 3.16-3.206-.031-.701-2.576-9.45-5.654-19.443-3.079-9.992-5.551-18.227-5.495-18.299.057-.072 3.361.945 7.344 2.26l7.24 2.391 7.242-2.391c3.982-1.315 7.287-2.332 7.344-2.26.056.072-2.416 8.307-5.495 18.299-3.079 9.993-5.623 18.742-5.654 19.443-.078 1.8 1.324 3.218 3.184 3.218 2.103 0 2.93-1.044 4.256-5.372.641-2.095 3.727-12.161 6.857-22.368 6.284-20.49 6.243-20.251 3.686-21.636l-1.356-.734-10.043 3.337-10.044 3.338-9.133-3.058c-10.778-3.609-11-3.662-12.321-2.936Zm-31.401 44.45c-8.882 8.882-9.086 9.121-9.086 10.676 0 2.089 1.205 3.289 3.301 3.289 1.428 0 1.889-.389 10.042-8.498 8.458-8.41 9.65-9.823 9.65-11.438 0-1.311-2.056-3.115-3.55-3.115-1.14 0-2.22.948-10.357 9.086Zm93.098-8.294c-1.117 1.043-1.444 2.478-.877 3.85.253.612 4.366 5.003 9.141 9.76 8.179 8.148 8.766 8.649 10.125 8.649 1.982 0 3.357-1.391 3.357-3.399 0-1.411-.424-1.904-9.086-10.566-8.386-8.387-9.19-9.086-10.448-9.086-.832 0-1.695.309-2.212.792ZM85.373 159.76c-7.675.796-12.396 1.452-12.946 1.798-2.095 1.32-2.005 4.282.17 5.555 1.157.677 1.593.657 15.168-.708 9.653-.971 14.253-1.584 14.871-1.984 1.806-1.168 1.959-3.373.357-5.128-1.056-1.156-2.291-1.123-17.62.467Zm1.99 9.801c-14.493 1.503-14.74 1.542-15.572 2.463-1.188 1.316-1.21 2.918-.058 4.291.893 1.063 1.302 1.243 2.825 1.243 2.794 0 25.458-2.303 27.084-2.753 2.852-.788 3.422-4.352.939-5.869-.676-.414-1.58-.732-2.009-.708-.428.025-6.372.625-13.208 1.333Zm-1.795 10.178-12.665 1.309-1.111 1.235c-.895.995-1.065 1.471-.877 2.455.275 1.438 1.87 2.979 3.081 2.977 2.58-.005 27.676-2.773 28.331-3.125 2.16-1.159 2.416-3.955.501-5.465-1.28-1.009-1.684-.995-17.26.614Zm-13.424 12.373c-.548.483-1.097 1.409-1.22 2.057-.319 1.664.773 2.888 4.496 5.04L78.517 201h18l3.097-1.791c3.722-2.152 4.814-3.376 4.497-5.04-.281-1.47-1.893-2.937-3.229-2.937-.556 0-2.228.704-3.715 1.563l-2.704 1.563H80.571l-2.704-1.563c-3.087-1.784-4.31-1.93-5.723-.683Z" clip-rule="evenodd"/>
  <path stroke="#000" stroke-opacity=".75" stroke-width="2" d="m85.298 1.903-1.094.943-.117 12.305c-.099 10.261-.021 12.539.468 13.712 1.116 2.677 4.48 2.805 5.798.22.627-1.232.682-2.52.584-13.798l-.108-12.44-1.093-.942C88.339.7 86.695.7 85.298 1.903ZM27.26 25.745c-1.504.656-2.258 2.483-1.669 4.045.466 1.235 16.407 17.456 17.965 18.28 1.577.834 2.587.68 3.85-.586.789-.791 1.138-1.53 1.138-2.405 0-1.124-.958-2.232-8.67-10.025-7.773-7.854-10.08-9.904-11.088-9.854-.172.008-.858.254-1.526.545Zm117.349.176c-.643.403-4.984 4.595-9.645 9.314-7.767 7.863-8.477 8.695-8.477 9.936a3.31 3.31 0 0 0 4.619 3.09c1.438-.598 17.818-17.099 18.334-18.471a3.175 3.175 0 0 0-1.753-4.062c-1.644-.688-1.676-.686-3.078.193ZM82.84 38.707c-12.758 1.58-23.809 7.595-31.386 17.085-9.325 11.682-12.48 25.632-9.092 40.214.958 4.127 2.99 8.381 9.197 19.262 11.348 19.895 15.403 28.425 16.492 34.693.314 1.81.71 2.777 1.41 3.435l.971.915h34.17l.972-.915c.698-.658 1.095-1.625 1.409-3.435 1.089-6.268 5.144-14.798 16.492-34.693 2.566-4.497 5.506-9.9 6.533-12.007 5.111-10.477 5.319-24.216.544-35.782-5.97-14.457-18.518-24.838-33.877-28.025-3.074-.638-11.178-1.075-13.835-.747Zm-1.631 7.008C61.384 48.81 46.814 66.707 47.888 86.643c.45 8.347 1.543 11.197 9.978 25.999 9.104 15.975 13.56 24.892 15.648 31.316l1.08 3.321h25.817l1.143-3.408c2.211-6.598 7.18-16.479 16.359-32.537 7.556-13.217 8.793-16.525 9.233-24.69.594-11.026-3.54-21.75-11.434-29.665-6.193-6.208-13.643-9.99-22.244-11.289-4.564-.69-7.727-.683-12.26.025ZM3.088 84.56C2.07 84.98 1 86.443 1 87.412c0 1.33 1.134 2.93 2.385 3.368 1.97.689 23.776.586 25.461-.12 2.306-.966 2.853-3.287 1.222-5.188l-.94-1.096-12.602-.081c-6.932-.045-12.979.075-13.438.265Zm143.025 0c-1.778.737-2.585 3.038-1.667 4.758.912 1.707 2.348 1.895 14.513 1.895 7.375 0 11.892-.154 12.69-.433 1.275-.446 2.385-2.043 2.385-3.433 0-.428-.424-1.272-.94-1.875l-.941-1.096-12.602-.081c-6.931-.045-12.978.075-13.438.265Zm-80.074 6.843c-.56.308-1.237 1.09-1.504 1.736-.448 1.085.036 2.886 6.233 23.165 3.695 12.094 6.9 22.34 7.12 22.77.628 1.219 1.52 1.732 3.033 1.746 1.833.016 3.238-1.409 3.16-3.206-.031-.701-2.576-9.45-5.654-19.443-3.079-9.992-5.551-18.227-5.495-18.299.057-.072 3.361.945 7.344 2.26l7.24 2.391 7.242-2.391c3.982-1.315 7.287-2.332 7.344-2.26.056.072-2.416 8.307-5.495 18.299-3.079 9.993-5.623 18.742-5.654 19.443-.078 1.8 1.324 3.218 3.184 3.218 2.103 0 2.93-1.044 4.256-5.372.641-2.095 3.727-12.161 6.857-22.368 6.284-20.49 6.243-20.251 3.686-21.636l-1.356-.734-10.043 3.337-10.044 3.338-9.133-3.058c-10.778-3.609-11-3.662-12.321-2.936Zm-31.401 44.45c-8.882 8.882-9.086 9.121-9.086 10.676 0 2.089 1.205 3.289 3.301 3.289 1.428 0 1.889-.389 10.042-8.498 8.458-8.41 9.65-9.823 9.65-11.438 0-1.311-2.056-3.115-3.55-3.115-1.14 0-2.22.948-10.357 9.086Zm93.098-8.294c-1.117 1.043-1.444 2.478-.877 3.85.253.612 4.366 5.003 9.141 9.76 8.179 8.148 8.766 8.649 10.125 8.649 1.982 0 3.357-1.391 3.357-3.399 0-1.411-.424-1.904-9.086-10.566-8.386-8.387-9.19-9.086-10.448-9.086-.832 0-1.695.309-2.212.792ZM85.373 159.76c-7.675.796-12.396 1.452-12.946 1.798-2.095 1.32-2.005 4.282.17 5.555 1.157.677 1.593.657 15.168-.708 9.653-.971 14.253-1.584 14.871-1.984 1.806-1.168 1.959-3.373.357-5.128-1.056-1.156-2.291-1.123-17.62.467Zm1.99 9.801c-14.493 1.503-14.74 1.542-15.572 2.463-1.188 1.316-1.21 2.918-.058 4.291.893 1.063 1.302 1.243 2.825 1.243 2.794 0 25.458-2.303 27.084-2.753 2.852-.788 3.422-4.352.939-5.869-.676-.414-1.58-.732-2.009-.708-.428.025-6.372.625-13.208 1.333Zm-1.795 10.178-12.665 1.309-1.111 1.235c-.895.995-1.065 1.471-.877 2.455.275 1.438 1.87 2.979 3.081 2.977 2.58-.005 27.676-2.773 28.331-3.125 2.16-1.159 2.416-3.955.501-5.465-1.28-1.009-1.684-.995-17.26.614Zm-13.424 12.373c-.548.483-1.097 1.409-1.22 2.057-.319 1.664.773 2.888 4.496 5.04L78.517 201h18l3.097-1.791c3.722-2.152 4.814-3.376 4.497-5.04-.281-1.47-1.893-2.937-3.229-2.937-.556 0-2.228.704-3.715 1.563l-2.704 1.563H80.571l-2.704-1.563c-3.087-1.784-4.31-1.93-5.723-.683Z" clip-rule="evenodd" mask="url(#a)"/>
</svg>
