<svg xmlns="http://www.w3.org/2000/svg" width="201" height="200" fill="none" viewBox="0 0 201 200">
  <path fill="#000" fill-opacity=".75" fill-rule="evenodd" d="M91.741.123c-13.915 1.493-24.42 4.45-36.042 10.145-10.367 5.079-20.046 12.181-28.295 20.763l-4.323 4.496v-3.583c0-4.105-.582-5.769-2.494-7.133-1.707-1.217-5.043-1.217-6.75 0-2.442 1.743-2.493 2.095-2.493 17.326 0 13.438.02 13.813.854 15.297.55.977 1.441 1.804 2.498 2.316l1.644.795 12.857-.824c13.919-.891 14.712-1.05 16.29-3.26 1.217-1.708 1.217-5.043 0-6.75-1.704-2.388-2.947-2.656-10.259-2.21-3.56.218-6.515.364-6.565.325-.049-.04 1.095-1.557 2.543-3.372 5.34-6.695 14.152-14.526 21.608-19.203 10.323-6.477 21.964-10.726 34.82-12.711 6.188-.956 18.455-.956 24.632-.001 28.619 4.424 52.556 21.443 65.877 46.84 5.922 11.29 9.113 23.325 9.959 37.552.268 4.515.442 5.489 1.166 6.505 2.458 3.452 8.295 3.048 9.932-.686.516-1.178.521-1.168.746 1.276l.226 2.462.062-3.325c.076-4.008-.853-14.891-1.686-19.757-2.682-15.666-9.111-30.504-18.901-43.622-4.348-5.826-13.811-15.289-19.637-19.637C146.228 9.862 131.262 3.587 113.972.843c-3.724-.59-18.865-1.081-22.231-.72Zm29.538 35.636c-.659.116-10.959 10.151-31.567 30.756-27.15 27.145-30.619 30.749-30.853 32.05-.403 2.243.108 4.075 1.529 5.484 1.108 1.098 3.224 1.911 16.021 6.15 8.11 2.687 14.745 5.02 14.745 5.185 0 .166-4.582 9.463-10.182 20.662-6.786 13.571-10.26 20.934-10.418 22.081-.192 1.408-.054 2.029.768 3.432 1.324 2.259 3.378 3.232 6.016 2.85 1.88-.272 1.945-.334 32.473-30.857 27.149-27.146 30.618-30.75 30.852-32.052.404-2.242-.107-4.074-1.529-5.483-1.108-1.099-3.224-1.91-16.021-6.15-8.11-2.687-14.745-5.02-14.745-5.186 0-.165 4.582-9.462 10.182-20.661 6.718-13.435 10.261-20.94 10.415-22.063.186-1.353.044-2.038-.691-3.347-1.418-2.523-3.664-3.438-6.995-2.85ZM88.314 84.681 75.502 97.497l13.401 4.453c7.37 2.448 13.864 4.776 14.429 5.172 1.295.908 2.298 2.988 2.298 4.77 0 .947-1.162 3.72-3.743 8.939l-3.744 7.566 12.939-12.91 12.938-12.91-13.438-4.5c-7.391-2.474-13.88-4.794-14.419-5.155-1.245-.832-2.27-2.977-2.27-4.748 0-.948 1.147-3.683 3.71-8.841 2.04-4.108 3.667-7.468 3.616-7.468-.051 0-5.858 5.767-12.905 12.816ZM2.932 94.765c-.645.328-1.569 1.075-2.052 1.66-.83 1.007-.878 1.412-.88 7.425-.004 12.837 3.238 26.379 9.342 39.022 5.367 11.118 10.96 18.978 19.781 27.799 15.995 15.995 34.777 25.331 57.923 28.792 5.373.804 21.118.681 26.799-.208 22.534-3.529 42.637-13.954 58.274-30.22l4.323-4.496v3.583c0 4.105.581 5.768 2.493 7.132 1.707 1.218 5.043 1.218 6.75 0 2.443-1.742 2.494-2.094 2.494-17.325 0-13.439-.022-13.814-.855-15.297-.55-.978-1.441-1.804-2.498-2.316l-1.644-.796-12.857.825c-13.919.891-14.712 1.05-16.289 3.26-1.217 1.707-1.217 5.043 0 6.75 1.704 2.388 2.946 2.656 10.258 2.209 3.561-.217 6.515-.363 6.565-.324.049.039-1.095 1.557-2.543 3.372-5.34 6.695-14.152 14.525-21.608 19.203-10.322 6.476-21.964 10.726-34.819 12.711-6.189.956-18.456.956-24.633.001-28.62-4.424-52.555-21.444-65.877-46.84-5.922-11.291-9.113-23.325-9.958-37.552-.269-4.515-.443-5.489-1.167-6.505-1.607-2.256-4.899-3.095-7.322-1.865Z" clip-rule="evenodd"/>
</svg>
