<?xml version="1.0" encoding="utf-8"?>
<!DOCTYPE svg PUBLIC "-//W3C//DTD SVG 1.1//EN" "http://www.w3.org/Graphics/SVG/1.1/DTD/svg11.dtd">
<svg version="1.1" xmlns="http://www.w3.org/2000/svg" xmlns:xlink="http://www.w3.org/1999/xlink" x="0px" y="0px" viewBox="0 0 1000 1000" enable-background="new 0 0 1000 1000" xml:space="preserve">
<metadata> Svg Vector Icons : http://www.onlinewebfonts.com/icon </metadata>
<g><path d="M500,10c270.7,0,490,219.4,490,490c0,270.7-219.3,490-490,490C229.4,990,10,770.7,10,500C10,229.4,229.4,10,500,10z M787.5,315.1c-0.3-3.1-0.6-6.3-1-9.5c-1.5-14.8-8.2-27.4-16.4-39.3c-10-14.3-21.8-27-35.8-37.4c-11-8.2-23.5-12.5-37-14.2c-0.9-0.1-1.6-0.4-2.4-0.7c-3.7,0-7.3,0-10.9,0c-0.6,0.2-1.2,0.5-1.8,0.5c-10.4,1.3-20,4.8-27.9,11.6c-12.6,10.9-24.8,22.4-37.2,33.6c-0.1,0.1-0.1,0.4,0,0c40.8,40.8,81.4,81.5,122.1,122.1c0.1-0.1,0.5-0.4,0.9-0.7c10.9-10.6,22.2-20.9,32.7-31.8c4.1-4.3,7.6-9.6,10-15c2.4-5.4,3.1-11.6,4.5-17.4C787.5,316.4,787.5,315.7,787.5,315.1z M566.7,309.8c0.2-0.4-0.3,0.1-0.9,0.6c-97.6,97.8-195.1,195.7-292.9,293.4c-13.1,13.1-22.7,28.3-28.4,45.6c-9.6,29.7-18.5,59.7-27.4,89.6c-3,9.9-5,20-4.5,30.5c0.4,9.6,5.4,15.8,14.9,16.3c6.9,0.4,14-0.2,20.9-1.6c26.4-5.6,52.1-13.9,77.6-22.8c10.5-3.7,20.8-7.9,31.3-11.8c18.9-7,34.3-19.2,48.3-33.2C499.8,622,594,527.5,688.3,433.1c0.4-0.5,0.8-0.9,1.8-2C648.9,390.7,607.8,350.2,566.7,309.8z"/></g>
</svg>